<?xml version="1.0" encoding="UTF-8" standalone="no"?>
<!DOCTYPE svg PUBLIC "-//W3C//DTD SVG 1.1//EN" "http://www.w3.org/Graphics/SVG/1.1/DTD/svg11.dtd">
<svg width="100%" height="100%" viewBox="0 0 348 283" version="1.1" xmlns="http://www.w3.org/2000/svg" xmlns:xlink="http://www.w3.org/1999/xlink" xml:space="preserve" xmlns:serif="http://www.serif.com/" style="fill-rule:evenodd;clip-rule:evenodd;stroke-linejoin:round;stroke-miterlimit:2;">
    <g transform="matrix(1,0,0,1,-26.4643,-59.0027)">
        <g id="cog" transform="matrix(1,0,0,1,48.3966,-21.4929)">
            <path d="M162.206,98.923C203.045,98.923 236.202,132.08 236.202,172.919C236.202,213.758 203.045,246.914 162.206,246.914C121.367,246.914 88.211,213.758 88.211,172.919C88.211,132.08 121.367,98.923 162.206,98.923ZM162.206,117.511C192.787,117.511 217.614,142.338 217.614,172.919C217.614,203.499 192.787,228.327 162.206,228.327C131.626,228.327 106.798,203.499 106.798,172.919C106.798,142.338 131.626,117.511 162.206,117.511Z" style="fill:rgb(121,134,203);"/>
            <g transform="matrix(0.647673,0,0,1,57.1495,-0.650171)">
                <g transform="matrix(1,0,0,0.729961,-4.82399,28.0166)">
                    <path d="M190.13,106.966L143.931,106.966L147.36,72.784L187.27,72.784L190.13,106.966Z" style="fill:rgb(121,134,203);"/>
                </g>
                <g transform="matrix(1,0,0,-0.729961,-4.82399,319.122)">
                    <path d="M190.13,106.966L143.931,106.966L147.36,72.784L187.27,72.784L190.13,106.966Z" style="fill:rgb(121,134,203);"/>
                </g>
            </g>
            <g transform="matrix(3.96586e-17,-0.647673,1,6.12323e-17,-11.3629,277.976)">
                <g transform="matrix(1,0,0,0.729961,-4.82399,28.0166)">
                    <path d="M190.13,106.966L143.931,106.966L147.36,72.784L187.27,72.784L190.13,106.966Z" style="fill:rgb(121,134,203);"/>
                </g>
                <g transform="matrix(1,0,0,-0.729961,-4.82399,319.122)">
                    <path d="M190.13,106.966L143.931,106.966L147.36,72.784L187.27,72.784L190.13,106.966Z" style="fill:rgb(121,134,203);"/>
                </g>
            </g>
            <g transform="matrix(0.457974,0.457974,-0.707107,0.707107,210.025,-24.7264)">
                <g transform="matrix(1,0,0,0.729961,-4.82399,28.0166)">
                    <path d="M190.13,106.966L143.931,106.966L147.36,72.784L187.27,72.784L190.13,106.966Z" style="fill:rgb(121,134,203);"/>
                </g>
                <g transform="matrix(1,0,0,-0.729961,-4.82399,319.122)">
                    <path d="M190.13,106.966L143.931,106.966L147.36,72.784L187.27,72.784L190.13,106.966Z" style="fill:rgb(121,134,203);"/>
                </g>
            </g>
            <g transform="matrix(0.457974,-0.457974,0.707107,0.707107,-35.4391,125.1)">
                <g transform="matrix(1,0,0,0.729961,-4.82399,28.0166)">
                    <path d="M190.13,106.966L143.931,106.966L147.36,72.784L187.27,72.784L190.13,106.966Z" style="fill:rgb(121,134,203);"/>
                </g>
                <g transform="matrix(1,0,0,-0.729961,-4.82399,319.122)">
                    <path d="M190.13,106.966L143.931,106.966L147.36,72.784L187.27,72.784L190.13,106.966Z" style="fill:rgb(121,134,203);"/>
                </g>
            </g>
        </g>
        <g id="cog1" serif:id="cog" transform="matrix(0.471979,-0.590367,0.590367,0.471979,124.324,284.598)">
            <path d="M162.206,98.923C203.045,98.923 236.202,132.08 236.202,172.919C236.202,213.758 203.045,246.914 162.206,246.914C121.367,246.914 88.211,213.758 88.211,172.919C88.211,132.08 121.367,98.923 162.206,98.923ZM162.206,117.511C192.787,117.511 217.614,142.338 217.614,172.919C217.614,203.499 192.787,228.327 162.206,228.327C131.626,228.327 106.798,203.499 106.798,172.919C106.798,142.338 131.626,117.511 162.206,117.511Z" style="fill:rgb(121,134,203);"/>
            <g transform="matrix(0.647673,0,0,1,57.1495,-0.650171)">
                <g transform="matrix(1,0,0,0.729961,-4.82399,28.0166)">
                    <path d="M190.13,106.966L143.931,106.966L147.36,72.784L187.27,72.784L190.13,106.966Z" style="fill:rgb(121,134,203);"/>
                </g>
                <g transform="matrix(1,0,0,-0.729961,-4.82399,319.122)">
                    <path d="M190.13,106.966L143.931,106.966L147.36,72.784L187.27,72.784L190.13,106.966Z" style="fill:rgb(121,134,203);"/>
                </g>
            </g>
            <g transform="matrix(3.96586e-17,-0.647673,1,6.12323e-17,-11.3629,277.976)">
                <g transform="matrix(1,0,0,0.729961,-4.82399,28.0166)">
                    <path d="M190.13,106.966L143.931,106.966L147.36,72.784L187.27,72.784L190.13,106.966Z" style="fill:rgb(121,134,203);"/>
                </g>
                <g transform="matrix(1,0,0,-0.729961,-4.82399,319.122)">
                    <path d="M190.13,106.966L143.931,106.966L147.36,72.784L187.27,72.784L190.13,106.966Z" style="fill:rgb(121,134,203);"/>
                </g>
            </g>
            <g transform="matrix(0.457974,0.457974,-0.707107,0.707107,210.025,-24.7264)">
                <g transform="matrix(1,0,0,0.729961,-4.82399,28.0166)">
                    <path d="M190.13,106.966L143.931,106.966L147.36,72.784L187.27,72.784L190.13,106.966Z" style="fill:rgb(121,134,203);"/>
                </g>
                <g transform="matrix(1,0,0,-0.729961,-4.82399,319.122)">
                    <path d="M190.13,106.966L143.931,106.966L147.36,72.784L187.27,72.784L190.13,106.966Z" style="fill:rgb(121,134,203);"/>
                </g>
            </g>
            <g transform="matrix(0.457974,-0.457974,0.707107,0.707107,-35.4391,125.1)">
                <g transform="matrix(1,0,0,0.729961,-4.82399,28.0166)">
                    <path d="M190.13,106.966L143.931,106.966L147.36,72.784L187.27,72.784L190.13,106.966Z" style="fill:rgb(121,134,203);"/>
                </g>
                <g transform="matrix(1,0,0,-0.729961,-4.82399,319.122)">
                    <path d="M190.13,106.966L143.931,106.966L147.36,72.784L187.27,72.784L190.13,106.966Z" style="fill:rgb(121,134,203);"/>
                </g>
            </g>
        </g>
        <g id="cog2" serif:id="cog" transform="matrix(0.742771,-0.140312,0.140312,0.742771,-47.7917,143.938)">
            <path d="M162.206,98.923C203.045,98.923 236.202,132.08 236.202,172.919C236.202,213.758 203.045,246.914 162.206,246.914C121.367,246.914 88.211,213.758 88.211,172.919C88.211,132.08 121.367,98.923 162.206,98.923ZM162.206,117.511C192.787,117.511 217.614,142.338 217.614,172.919C217.614,203.499 192.787,228.327 162.206,228.327C131.626,228.327 106.798,203.499 106.798,172.919C106.798,142.338 131.626,117.511 162.206,117.511Z" style="fill:rgb(121,134,203);"/>
            <g transform="matrix(0.647673,0,0,1,57.1495,-0.650171)">
                <g transform="matrix(1,0,0,0.729961,-4.82399,28.0166)">
                    <path d="M190.13,106.966L143.931,106.966L147.36,72.784L187.27,72.784L190.13,106.966Z" style="fill:rgb(121,134,203);"/>
                </g>
                <g transform="matrix(1,0,0,-0.729961,-4.82399,319.122)">
                    <path d="M190.13,106.966L143.931,106.966L147.36,72.784L187.27,72.784L190.13,106.966Z" style="fill:rgb(121,134,203);"/>
                </g>
            </g>
            <g transform="matrix(3.96586e-17,-0.647673,1,6.12323e-17,-11.3629,277.976)">
                <g transform="matrix(1,0,0,0.729961,-4.82399,28.0166)">
                    <path d="M190.13,106.966L143.931,106.966L147.36,72.784L187.27,72.784L190.13,106.966Z" style="fill:rgb(121,134,203);"/>
                </g>
                <g transform="matrix(1,0,0,-0.729961,-4.82399,319.122)">
                    <path d="M190.13,106.966L143.931,106.966L147.36,72.784L187.27,72.784L190.13,106.966Z" style="fill:rgb(121,134,203);"/>
                </g>
            </g>
            <g transform="matrix(0.457974,0.457974,-0.707107,0.707107,210.025,-24.7264)">
                <g transform="matrix(1,0,0,0.729961,-4.82399,28.0166)">
                    <path d="M190.13,106.966L143.931,106.966L147.36,72.784L187.27,72.784L190.13,106.966Z" style="fill:rgb(121,134,203);"/>
                </g>
                <g transform="matrix(1,0,0,-0.729961,-4.82399,319.122)">
                    <path d="M190.13,106.966L143.931,106.966L147.36,72.784L187.27,72.784L190.13,106.966Z" style="fill:rgb(121,134,203);"/>
                </g>
            </g>
            <g transform="matrix(0.457974,-0.457974,0.707107,0.707107,-35.4391,125.1)">
                <g transform="matrix(1,0,0,0.729961,-4.82399,28.0166)">
                    <path d="M190.13,106.966L143.931,106.966L147.36,72.784L187.27,72.784L190.13,106.966Z" style="fill:rgb(121,134,203);"/>
                </g>
                <g transform="matrix(1,0,0,-0.729961,-4.82399,319.122)">
                    <path d="M190.13,106.966L143.931,106.966L147.36,72.784L187.27,72.784L190.13,106.966Z" style="fill:rgb(121,134,203);"/>
                </g>
            </g>
        </g>
        <g id="lock" transform="matrix(0.733791,-0.141215,0.141215,0.733791,35.1029,73.4728)">
            <g transform="matrix(1.33823,0,0,1.33823,-70.9216,-55.8201)">
                <path d="M233.174,152.696C233.174,147.491 228.948,143.265 223.743,143.265L197.463,143.265C192.258,143.265 188.032,147.491 188.032,152.696L188.032,171.558C188.032,176.763 192.258,180.989 197.463,180.989L223.743,180.989C228.948,180.989 233.174,176.763 233.174,171.558L233.174,152.696ZM229.743,154.129C229.743,149.715 226.159,146.132 221.745,146.132L199.46,146.132C195.046,146.132 191.463,149.715 191.463,154.129L191.463,170.124C191.463,174.538 195.046,178.122 199.46,178.122L221.745,178.122C226.159,178.122 229.743,174.538 229.743,170.124L229.743,154.129Z" style="fill:rgb(121,134,203);"/>
            </g>
            <g transform="matrix(2.08992,0,0,2.08992,-229.229,-177.689)">
                <path d="M209.744,162.652C208.446,162.279 207.495,161.082 207.495,159.665C207.495,157.949 208.888,156.557 210.603,156.557C212.318,156.557 213.711,157.949 213.711,159.665C213.711,161.082 212.76,162.279 211.462,162.652L211.462,167.697L209.744,167.697L209.744,162.652Z" style="fill:rgb(121,134,203);"/>
            </g>
            <g transform="matrix(1.50298,0,0,1,-104.622,0.254944)">
                <path d="M197.518,115.522C197.56,110.816 203.017,107.005 209.733,107.005C216.475,107.005 221.949,110.846 221.949,115.577L221.949,138.026L197.518,138.026C197.518,138.026 197.518,121.13 197.518,115.577C197.518,115.559 197.518,115.522 197.518,115.522ZM202.679,121.3C202.706,117.896 205.595,115.139 209.908,115.139C214.238,115.139 217.228,117.918 217.228,121.34L217.228,136.513L202.679,136.513L202.679,121.34L202.679,121.3Z" style="fill:rgb(121,134,203);"/>
            </g>
        </g>
        <g id="dumbbells" transform="matrix(0.502951,0.191094,-0.200394,0.527428,247.23,36.6813)">
            <g transform="matrix(1,0,0,1,-70.4304,78.7337)">
                <path d="M284.598,256.126C284.598,254.909 283.562,253.92 282.285,253.92L277.659,253.92C276.382,253.92 275.346,254.909 275.346,256.126L275.346,290.859C275.346,292.077 276.382,293.065 277.659,293.065L282.285,293.065C283.562,293.065 284.598,292.077 284.598,290.859L284.598,256.126Z" style="fill:rgb(121,134,203);"/>
            </g>
            <g transform="matrix(1,0,0,1.23743,-58.9299,13.7981)">
                <path d="M284.598,255.703C284.598,254.719 283.562,253.92 282.285,253.92L277.659,253.92C276.382,253.92 275.346,254.719 275.346,255.703L275.346,291.283C275.346,292.267 276.382,293.065 277.659,293.065L282.285,293.065C283.562,293.065 284.598,292.267 284.598,291.283L284.598,255.703Z" style="fill:rgb(121,134,203);"/>
            </g>
            <g transform="matrix(-1,0,0,1.23743,559.944,13.7981)">
                <path d="M284.598,255.703C284.598,254.719 283.562,253.92 282.285,253.92L277.659,253.92C276.382,253.92 275.346,254.719 275.346,255.703L275.346,291.283C275.346,292.267 276.382,293.065 277.659,293.065L282.285,293.065C283.562,293.065 284.598,292.267 284.598,291.283L284.598,255.703Z" style="fill:rgb(121,134,203);"/>
            </g>
            <g transform="matrix(-1,0,0,1,571.444,78.7337)">
                <path d="M284.598,256.126C284.598,254.909 283.562,253.92 282.285,253.92L277.659,253.92C276.382,253.92 275.346,254.909 275.346,256.126L275.346,290.859C275.346,292.077 276.382,293.065 277.659,293.065L282.285,293.065C283.562,293.065 284.598,292.077 284.598,290.859L284.598,256.126Z" style="fill:rgb(121,134,203);"/>
            </g>
            <g transform="matrix(0.443696,0,0,1,162.147,78.7337)">
                <rect x="291.472" y="266.288" width="24.454" height="10.93" style="fill:rgb(121,134,203);"/>
            </g>
            <g transform="matrix(1.80927,0,0,1,-298.893,80.4738)">
                <rect x="291.472" y="266.288" width="24.454" height="10.93" style="fill:rgb(121,134,203);"/>
            </g>
            <g transform="matrix(0.443696,0,0,1,70.6748,78.7337)">
                <rect x="291.472" y="266.288" width="24.454" height="10.93" style="fill:rgb(121,134,203);"/>
            </g>
        </g>
        <g id="lightbulb" transform="matrix(0.892387,0.138662,-0.138662,0.892387,-24.4852,-79.665)">
            <path d="M176.716,344.772C174.185,341.051 167.513,335.092 167.513,328.065C167.513,317.156 176.369,308.3 187.278,308.3C198.187,308.3 207.044,317.156 207.044,328.065C207.044,335.092 200.48,341.127 197.84,344.772C197.26,345.574 196.605,349.333 196.605,349.333L178.21,349.333C178.21,349.333 177.31,345.644 176.716,344.772ZM179.101,341.169C177.141,338.289 171.975,333.675 171.975,328.235C171.975,319.789 178.832,312.932 187.278,312.932C195.724,312.932 202.581,319.789 202.581,328.235C202.581,333.675 197.499,338.348 195.456,341.169C195.006,341.79 194.499,344.7 194.499,344.7L180.258,344.7C180.258,344.7 179.561,341.845 179.101,341.169Z" style="fill:rgb(121,134,203);"/>
            <g transform="matrix(3.70602e-17,0.605239,-0.733089,4.48888e-17,446.38,262.525)">
                <path d="M155.377,363.866C155.377,366.553 153.195,368.735 150.508,368.735C147.831,368.735 145.656,366.57 145.639,363.897L145.639,353.321L145.639,342.744C145.656,340.071 147.831,337.906 150.508,337.906C153.195,337.906 155.377,340.088 155.377,342.775L155.377,363.866Z" style="fill:rgb(121,134,203);"/>
            </g>
            <g transform="matrix(2.98845e-17,0.488051,-0.591147,3.61973e-17,396.228,286.667)">
                <path d="M155.377,363.866C155.377,366.553 153.195,368.735 150.508,368.735C147.831,368.735 145.656,366.57 145.639,363.897L145.639,353.321L145.639,342.744C145.656,340.071 147.831,337.906 150.508,337.906C153.195,337.906 155.377,340.088 155.377,342.775L155.377,363.866Z" style="fill:rgb(121,134,203);"/>
            </g>
            <g transform="matrix(0.491068,0,0,-0.491068,114.274,545.725)">
                <path d="M159.226,370.685L138.101,370.685C138.101,364.856 142.834,360.123 148.664,360.123C154.493,360.123 159.226,364.856 159.226,370.685Z" style="fill:rgb(121,134,203);"/>
            </g>
        </g>
    </g>
</svg>
