<?xml version="1.0" encoding="UTF-8" standalone="no"?>
<!DOCTYPE svg PUBLIC "-//W3C//DTD SVG 1.1//EN" "http://www.w3.org/Graphics/SVG/1.1/DTD/svg11.dtd">
<svg width="100%" height="100%" viewBox="0 0 393 391" version="1.1" xmlns="http://www.w3.org/2000/svg" xmlns:xlink="http://www.w3.org/1999/xlink" xml:space="preserve" xmlns:serif="http://www.serif.com/" style="fill-rule:evenodd;clip-rule:evenodd;stroke-linecap:round;stroke-linejoin:round;stroke-miterlimit:1.5;">
    <g transform="matrix(1,0,0,1,-3.83978,-4.64501)">
        <g>
            <g transform="matrix(0.166512,0,0,0.16184,18.2031,324.832)">
                <g transform="matrix(3.35724,0,0,3.35724,-579.367,40.8644)">
                    <path d="M206.559,0L235.504,57.891L177.613,57.891L206.559,0Z" style="fill:none;stroke:url(#_Linear1);stroke-width:3.63px;"/>
                </g>
                <g transform="matrix(3.35724,0,0,3.35724,-480.216,235.219)">
                    <path d="M206.559,0L235.504,57.891L177.613,57.891L206.559,0Z" style="fill:none;stroke:url(#_Linear2);stroke-width:3.63px;"/>
                </g>
                <g transform="matrix(3.35724,0,0,3.35724,-676.544,235.219)">
                    <path d="M206.559,0L235.504,57.891L177.613,57.891L206.559,0Z" style="fill:none;stroke:url(#_Linear3);stroke-width:3.63px;"/>
                </g>
            </g>
            <g transform="matrix(0.166512,0,0,0.16184,213.363,324.832)">
                <g transform="matrix(3.35724,0,0,3.35724,-579.367,40.8644)">
                    <path d="M206.559,0L235.504,57.891L177.613,57.891L206.559,0Z" style="fill:none;stroke:url(#_Linear4);stroke-width:3.63px;"/>
                </g>
                <g transform="matrix(3.35724,0,0,3.35724,-480.216,235.219)">
                    <path d="M206.559,0L235.504,57.891L177.613,57.891L206.559,0Z" style="fill:none;stroke:url(#_Linear5);stroke-width:3.63px;"/>
                </g>
                <g transform="matrix(3.35724,0,0,3.35724,-676.544,235.219)">
                    <path d="M206.559,0L235.504,57.891L177.613,57.891L206.559,0Z" style="fill:none;stroke:url(#_Linear6);stroke-width:3.63px;"/>
                </g>
            </g>
            <g transform="matrix(0.166512,0,0,0.16184,83.2565,324.832)">
                <g transform="matrix(3.35724,0,0,3.35724,-579.367,40.8644)">
                    <path d="M206.559,0L235.504,57.891L177.613,57.891L206.559,0Z" style="fill:none;stroke:url(#_Linear7);stroke-width:3.63px;"/>
                </g>
                <g transform="matrix(3.35724,0,0,3.35724,-480.216,235.219)">
                    <path d="M206.559,0L235.504,57.891L177.613,57.891L206.559,0Z" style="fill:none;stroke:url(#_Linear8);stroke-width:3.63px;"/>
                </g>
                <g transform="matrix(3.35724,0,0,3.35724,-676.544,235.219)">
                    <path d="M206.559,0L235.504,57.891L177.613,57.891L206.559,0Z" style="fill:none;stroke:url(#_Linear9);stroke-width:3.63px;"/>
                </g>
            </g>
            <g transform="matrix(0.166512,0,0,0.16184,278.417,324.832)">
                <g transform="matrix(3.35724,0,0,3.35724,-579.367,40.8644)">
                    <path d="M206.559,0L235.504,57.891L177.613,57.891L206.559,0Z" style="fill:none;stroke:url(#_Linear10);stroke-width:3.63px;"/>
                </g>
                <g transform="matrix(3.35724,0,0,3.35724,-480.216,235.219)">
                    <path d="M206.559,0L235.504,57.891L177.613,57.891L206.559,0Z" style="fill:none;stroke:url(#_Linear11);stroke-width:3.63px;"/>
                </g>
                <g transform="matrix(3.35724,0,0,3.35724,-676.544,235.219)">
                    <path d="M206.559,0L235.504,57.891L177.613,57.891L206.559,0Z" style="fill:none;stroke:url(#_Linear12);stroke-width:3.63px;"/>
                </g>
            </g>
            <g transform="matrix(0.166512,0,0,0.16184,147.323,61.9405)">
                <g transform="matrix(3.35724,0,0,3.35724,-579.367,40.8644)">
                    <path d="M206.559,0L235.504,57.891L177.613,57.891L206.559,0Z" style="fill:none;stroke:url(#_Linear13);stroke-width:3.63px;"/>
                </g>
                <g transform="matrix(3.35724,0,0,3.35724,-480.216,235.219)">
                    <path d="M206.559,0L235.504,57.891L177.613,57.891L206.559,0Z" style="fill:none;stroke:url(#_Linear14);stroke-width:3.63px;"/>
                </g>
                <g transform="matrix(3.35724,0,0,3.35724,-676.544,235.219)">
                    <path d="M206.559,0L235.504,57.891L177.613,57.891L206.559,0Z" style="fill:none;stroke:url(#_Linear15);stroke-width:3.63px;"/>
                </g>
            </g>
            <g transform="matrix(0.166512,0,0,0.16184,148.31,324.832)">
                <g transform="matrix(3.35724,0,0,3.35724,-579.367,40.8644)">
                    <path d="M206.559,0L235.504,57.891L177.613,57.891L206.559,0Z" style="fill:none;stroke:url(#_Linear16);stroke-width:3.63px;"/>
                </g>
                <g transform="matrix(3.35724,0,0,3.35724,-480.216,235.219)">
                    <path d="M206.559,0L235.504,57.891L177.613,57.891L206.559,0Z" style="fill:none;stroke:url(#_Linear17);stroke-width:3.63px;"/>
                </g>
                <g transform="matrix(3.35724,0,0,3.35724,-676.544,235.219)">
                    <path d="M206.559,0L235.504,57.891L177.613,57.891L206.559,0Z" style="fill:none;stroke:url(#_Linear18);stroke-width:3.63px;"/>
                </g>
            </g>
            <g transform="matrix(0.166512,0,0,0.16184,343.47,324.832)">
                <g transform="matrix(3.35724,0,0,3.35724,-579.367,40.8644)">
                    <path d="M206.559,0L235.504,57.891L177.613,57.891L206.559,0Z" style="fill:none;stroke:url(#_Linear19);stroke-width:3.63px;"/>
                </g>
                <g transform="matrix(3.35724,0,0,3.35724,-480.216,235.219)">
                    <path d="M206.559,0L235.504,57.891L177.613,57.891L206.559,0Z" style="fill:none;stroke:url(#_Linear20);stroke-width:3.63px;"/>
                </g>
                <g transform="matrix(3.35724,0,0,3.35724,-676.544,235.219)">
                    <path d="M206.559,0L235.504,57.891L177.613,57.891L206.559,0Z" style="fill:none;stroke:url(#_Linear21);stroke-width:3.63px;"/>
                </g>
            </g>
            <g transform="matrix(0.166512,0,0,0.16184,212.377,61.9405)">
                <g transform="matrix(3.35724,0,0,3.35724,-579.367,40.8644)">
                    <path d="M206.559,0L235.504,57.891L177.613,57.891L206.559,0Z" style="fill:none;stroke:url(#_Linear22);stroke-width:3.63px;"/>
                </g>
                <g transform="matrix(3.35724,0,0,3.35724,-480.216,235.219)">
                    <path d="M206.559,0L235.504,57.891L177.613,57.891L206.559,0Z" style="fill:none;stroke:url(#_Linear23);stroke-width:3.63px;"/>
                </g>
                <g transform="matrix(3.35724,0,0,3.35724,-676.544,235.219)">
                    <path d="M206.559,0L235.504,57.891L177.613,57.891L206.559,0Z" style="fill:none;stroke:url(#_Linear24);stroke-width:3.63px;"/>
                </g>
            </g>
            <g transform="matrix(0.166512,0,0,0.16184,50.5655,261.923)">
                <g transform="matrix(3.35724,0,0,3.35724,-579.367,40.8644)">
                    <path d="M206.559,0L235.504,57.891L177.613,57.891L206.559,0Z" style="fill:none;stroke:url(#_Linear25);stroke-width:3.63px;"/>
                </g>
                <g transform="matrix(3.35724,0,0,3.35724,-480.216,235.219)">
                    <path d="M206.559,0L235.504,57.891L177.613,57.891L206.559,0Z" style="fill:none;stroke:url(#_Linear26);stroke-width:3.63px;"/>
                </g>
                <g transform="matrix(3.35724,0,0,3.35724,-676.544,235.219)">
                    <path d="M206.559,0L235.504,57.891L177.613,57.891L206.559,0Z" style="fill:none;stroke:url(#_Linear27);stroke-width:3.63px;"/>
                </g>
            </g>
            <g transform="matrix(0.166512,0,0,0.16184,245.726,261.923)">
                <g transform="matrix(3.35724,0,0,3.35724,-579.367,40.8644)">
                    <path d="M206.559,0L235.504,57.891L177.613,57.891L206.559,0Z" style="fill:none;stroke:url(#_Linear28);stroke-width:3.63px;"/>
                </g>
                <g transform="matrix(3.35724,0,0,3.35724,-480.216,235.219)">
                    <path d="M206.559,0L235.504,57.891L177.613,57.891L206.559,0Z" style="fill:none;stroke:url(#_Linear29);stroke-width:3.63px;"/>
                </g>
                <g transform="matrix(3.35724,0,0,3.35724,-676.544,235.219)">
                    <path d="M206.559,0L235.504,57.891L177.613,57.891L206.559,0Z" style="fill:none;stroke:url(#_Linear30);stroke-width:3.63px;"/>
                </g>
            </g>
            <g transform="matrix(0.166512,0,0,0.16184,115.783,261.923)">
                <g transform="matrix(3.35724,0,0,3.35724,-579.367,40.8644)">
                    <path d="M206.559,0L235.504,57.891L177.613,57.891L206.559,0Z" style="fill:none;stroke:url(#_Linear31);stroke-width:3.63px;"/>
                </g>
                <g transform="matrix(3.35724,0,0,3.35724,-480.216,235.219)">
                    <path d="M206.559,0L235.504,57.891L177.613,57.891L206.559,0Z" style="fill:none;stroke:url(#_Linear32);stroke-width:3.63px;"/>
                </g>
                <g transform="matrix(3.35724,0,0,3.35724,-676.544,235.219)">
                    <path d="M206.559,0L235.504,57.891L177.613,57.891L206.559,0Z" style="fill:none;stroke:url(#_Linear33);stroke-width:3.63px;"/>
                </g>
            </g>
            <g transform="matrix(0.166512,0,0,0.16184,310.943,261.923)">
                <g transform="matrix(3.35724,0,0,3.35724,-579.367,40.8644)">
                    <path d="M206.559,0L235.504,57.891L177.613,57.891L206.559,0Z" style="fill:none;stroke:url(#_Linear34);stroke-width:3.63px;"/>
                </g>
                <g transform="matrix(3.35724,0,0,3.35724,-480.216,235.219)">
                    <path d="M206.559,0L235.504,57.891L177.613,57.891L206.559,0Z" style="fill:none;stroke:url(#_Linear35);stroke-width:3.63px;"/>
                </g>
                <g transform="matrix(3.35724,0,0,3.35724,-676.544,235.219)">
                    <path d="M206.559,0L235.504,57.891L177.613,57.891L206.559,0Z" style="fill:none;stroke:url(#_Linear36);stroke-width:3.63px;"/>
                </g>
            </g>
            <g transform="matrix(0.166512,0,0,0.16184,179.85,-0.968509)">
                <g transform="matrix(3.35724,0,0,3.35724,-579.367,40.8644)">
                    <path d="M206.559,0L235.504,57.891L177.613,57.891L206.559,0Z" style="fill:none;stroke:url(#_Linear37);stroke-width:3.63px;"/>
                </g>
                <g transform="matrix(3.35724,0,0,3.35724,-480.216,235.219)">
                    <path d="M206.559,0L235.504,57.891L177.613,57.891L206.559,0Z" style="fill:none;stroke:url(#_Linear38);stroke-width:3.63px;"/>
                </g>
                <g transform="matrix(3.35724,0,0,3.35724,-676.544,235.219)">
                    <path d="M206.559,0L235.504,57.891L177.613,57.891L206.559,0Z" style="fill:none;stroke:url(#_Linear39);stroke-width:3.63px;"/>
                </g>
            </g>
            <g id="dumbbells" transform="matrix(2.95295,-4.44089e-16,2.22045e-16,3.09666,-541.667,-890.726)">
                <g transform="matrix(1,0,0,1,-70.4304,78.7337)">
                    <path d="M284.598,256.126C284.598,254.909 283.562,253.92 282.285,253.92L277.659,253.92C276.382,253.92 275.346,254.909 275.346,256.126L275.346,290.859C275.346,292.077 276.382,293.065 277.659,293.065L282.285,293.065C283.562,293.065 284.598,292.077 284.598,290.859L284.598,256.126Z" style="fill:url(#_Linear40);"/>
                </g>
                <g transform="matrix(1,0,0,1.23743,-58.9299,13.7981)">
                    <path d="M284.598,255.703C284.598,254.719 283.562,253.92 282.285,253.92L277.659,253.92C276.382,253.92 275.346,254.719 275.346,255.703L275.346,291.283C275.346,292.267 276.382,293.065 277.659,293.065L282.285,293.065C283.562,293.065 284.598,292.267 284.598,291.283L284.598,255.703Z" style="fill:url(#_Linear41);"/>
                </g>
                <g transform="matrix(-1,0,0,1.23743,559.944,13.7981)">
                    <path d="M284.598,255.703C284.598,254.719 283.562,253.92 282.285,253.92L277.659,253.92C276.382,253.92 275.346,254.719 275.346,255.703L275.346,291.283C275.346,292.267 276.382,293.065 277.659,293.065L282.285,293.065C283.562,293.065 284.598,292.267 284.598,291.283L284.598,255.703Z" style="fill:url(#_Linear42);"/>
                </g>
                <g transform="matrix(-1,0,0,1,571.444,78.7337)">
                    <path d="M284.598,256.126C284.598,254.909 283.562,253.92 282.285,253.92L277.659,253.92C276.382,253.92 275.346,254.909 275.346,256.126L275.346,290.859C275.346,292.077 276.382,293.065 277.659,293.065L282.285,293.065C283.562,293.065 284.598,292.077 284.598,290.859L284.598,256.126Z" style="fill:url(#_Linear43);"/>
                </g>
                <g transform="matrix(0.443696,0,0,1,162.147,78.7337)">
                    <rect x="291.472" y="266.288" width="24.454" height="10.93" style="fill:url(#_Linear44);"/>
                </g>
                <g transform="matrix(1.80927,0,0,1,-298.893,80.4738)">
                    <rect x="291.472" y="266.288" width="24.454" height="10.93" style="fill:url(#_Linear45);"/>
                </g>
                <g transform="matrix(0.443696,0,0,1,70.6748,78.7337)">
                    <rect x="291.472" y="266.288" width="24.454" height="10.93" style="fill:url(#_Linear46);"/>
                </g>
            </g>
        </g>
    </g>
    <defs>
        <linearGradient id="_Linear1" x1="0" y1="0" x2="1" y2="0" gradientUnits="userSpaceOnUse" gradientTransform="matrix(57.8913,0,-0,59.5623,177.613,28.9457)"><stop offset="0" style="stop-color:rgb(165,180,252);stop-opacity:1"/><stop offset="1" style="stop-color:rgb(128,128,0);stop-opacity:1"/></linearGradient>
        <linearGradient id="_Linear2" x1="0" y1="0" x2="1" y2="0" gradientUnits="userSpaceOnUse" gradientTransform="matrix(57.8913,0,-0,59.5623,177.613,28.9457)"><stop offset="0" style="stop-color:rgb(165,180,252);stop-opacity:1"/><stop offset="1" style="stop-color:rgb(128,128,0);stop-opacity:1"/></linearGradient>
        <linearGradient id="_Linear3" x1="0" y1="0" x2="1" y2="0" gradientUnits="userSpaceOnUse" gradientTransform="matrix(57.8913,0,-0,59.5623,177.613,28.9457)"><stop offset="0" style="stop-color:rgb(165,180,252);stop-opacity:1"/><stop offset="1" style="stop-color:rgb(128,128,0);stop-opacity:1"/></linearGradient>
        <linearGradient id="_Linear4" x1="0" y1="0" x2="1" y2="0" gradientUnits="userSpaceOnUse" gradientTransform="matrix(57.8913,0,-0,59.5623,177.613,28.9457)"><stop offset="0" style="stop-color:rgb(165,180,252);stop-opacity:1"/><stop offset="1" style="stop-color:rgb(128,128,0);stop-opacity:1"/></linearGradient>
        <linearGradient id="_Linear5" x1="0" y1="0" x2="1" y2="0" gradientUnits="userSpaceOnUse" gradientTransform="matrix(57.8913,0,-0,59.5623,177.613,28.9457)"><stop offset="0" style="stop-color:rgb(165,180,252);stop-opacity:1"/><stop offset="1" style="stop-color:rgb(128,128,0);stop-opacity:1"/></linearGradient>
        <linearGradient id="_Linear6" x1="0" y1="0" x2="1" y2="0" gradientUnits="userSpaceOnUse" gradientTransform="matrix(57.8913,0,-0,59.5623,177.613,28.9457)"><stop offset="0" style="stop-color:rgb(165,180,252);stop-opacity:1"/><stop offset="1" style="stop-color:rgb(128,128,0);stop-opacity:1"/></linearGradient>
        <linearGradient id="_Linear7" x1="0" y1="0" x2="1" y2="0" gradientUnits="userSpaceOnUse" gradientTransform="matrix(57.8913,0,-0,59.5623,177.613,28.9457)"><stop offset="0" style="stop-color:rgb(165,180,252);stop-opacity:1"/><stop offset="1" style="stop-color:rgb(128,128,0);stop-opacity:1"/></linearGradient>
        <linearGradient id="_Linear8" x1="0" y1="0" x2="1" y2="0" gradientUnits="userSpaceOnUse" gradientTransform="matrix(57.8913,0,-0,59.5623,177.613,28.9457)"><stop offset="0" style="stop-color:rgb(165,180,252);stop-opacity:1"/><stop offset="1" style="stop-color:rgb(128,128,0);stop-opacity:1"/></linearGradient>
        <linearGradient id="_Linear9" x1="0" y1="0" x2="1" y2="0" gradientUnits="userSpaceOnUse" gradientTransform="matrix(57.8913,0,-0,59.5623,177.613,28.9457)"><stop offset="0" style="stop-color:rgb(165,180,252);stop-opacity:1"/><stop offset="1" style="stop-color:rgb(128,128,0);stop-opacity:1"/></linearGradient>
        <linearGradient id="_Linear10" x1="0" y1="0" x2="1" y2="0" gradientUnits="userSpaceOnUse" gradientTransform="matrix(57.8913,0,-0,59.5623,177.613,28.9457)"><stop offset="0" style="stop-color:rgb(165,180,252);stop-opacity:1"/><stop offset="1" style="stop-color:rgb(128,128,0);stop-opacity:1"/></linearGradient>
        <linearGradient id="_Linear11" x1="0" y1="0" x2="1" y2="0" gradientUnits="userSpaceOnUse" gradientTransform="matrix(57.8913,0,-0,59.5623,177.613,28.9457)"><stop offset="0" style="stop-color:rgb(165,180,252);stop-opacity:1"/><stop offset="1" style="stop-color:rgb(128,128,0);stop-opacity:1"/></linearGradient>
        <linearGradient id="_Linear12" x1="0" y1="0" x2="1" y2="0" gradientUnits="userSpaceOnUse" gradientTransform="matrix(57.8913,0,-0,59.5623,177.613,28.9457)"><stop offset="0" style="stop-color:rgb(165,180,252);stop-opacity:1"/><stop offset="1" style="stop-color:rgb(128,128,0);stop-opacity:1"/></linearGradient>
        <linearGradient id="_Linear13" x1="0" y1="0" x2="1" y2="0" gradientUnits="userSpaceOnUse" gradientTransform="matrix(57.8913,0,-0,59.5623,177.613,28.9457)"><stop offset="0" style="stop-color:rgb(165,180,252);stop-opacity:1"/><stop offset="1" style="stop-color:rgb(128,128,0);stop-opacity:1"/></linearGradient>
        <linearGradient id="_Linear14" x1="0" y1="0" x2="1" y2="0" gradientUnits="userSpaceOnUse" gradientTransform="matrix(57.8913,0,-0,59.5623,177.613,28.9457)"><stop offset="0" style="stop-color:rgb(165,180,252);stop-opacity:1"/><stop offset="1" style="stop-color:rgb(128,128,0);stop-opacity:1"/></linearGradient>
        <linearGradient id="_Linear15" x1="0" y1="0" x2="1" y2="0" gradientUnits="userSpaceOnUse" gradientTransform="matrix(57.8913,0,-0,59.5623,177.613,28.9457)"><stop offset="0" style="stop-color:rgb(165,180,252);stop-opacity:1"/><stop offset="1" style="stop-color:rgb(128,128,0);stop-opacity:1"/></linearGradient>
        <linearGradient id="_Linear16" x1="0" y1="0" x2="1" y2="0" gradientUnits="userSpaceOnUse" gradientTransform="matrix(57.8913,0,-0,59.5623,177.613,28.9457)"><stop offset="0" style="stop-color:rgb(165,180,252);stop-opacity:1"/><stop offset="1" style="stop-color:rgb(128,128,0);stop-opacity:1"/></linearGradient>
        <linearGradient id="_Linear17" x1="0" y1="0" x2="1" y2="0" gradientUnits="userSpaceOnUse" gradientTransform="matrix(57.8913,0,-0,59.5623,177.613,28.9457)"><stop offset="0" style="stop-color:rgb(165,180,252);stop-opacity:1"/><stop offset="1" style="stop-color:rgb(128,128,0);stop-opacity:1"/></linearGradient>
        <linearGradient id="_Linear18" x1="0" y1="0" x2="1" y2="0" gradientUnits="userSpaceOnUse" gradientTransform="matrix(57.8913,0,-0,59.5623,177.613,28.9457)"><stop offset="0" style="stop-color:rgb(165,180,252);stop-opacity:1"/><stop offset="1" style="stop-color:rgb(128,128,0);stop-opacity:1"/></linearGradient>
        <linearGradient id="_Linear19" x1="0" y1="0" x2="1" y2="0" gradientUnits="userSpaceOnUse" gradientTransform="matrix(57.8913,0,-0,59.5623,177.613,28.9457)"><stop offset="0" style="stop-color:rgb(165,180,252);stop-opacity:1"/><stop offset="1" style="stop-color:rgb(128,128,0);stop-opacity:1"/></linearGradient>
        <linearGradient id="_Linear20" x1="0" y1="0" x2="1" y2="0" gradientUnits="userSpaceOnUse" gradientTransform="matrix(57.8913,0,-0,59.5623,177.613,28.9457)"><stop offset="0" style="stop-color:rgb(165,180,252);stop-opacity:1"/><stop offset="1" style="stop-color:rgb(128,128,0);stop-opacity:1"/></linearGradient>
        <linearGradient id="_Linear21" x1="0" y1="0" x2="1" y2="0" gradientUnits="userSpaceOnUse" gradientTransform="matrix(57.8913,0,-0,59.5623,177.613,28.9457)"><stop offset="0" style="stop-color:rgb(165,180,252);stop-opacity:1"/><stop offset="1" style="stop-color:rgb(128,128,0);stop-opacity:1"/></linearGradient>
        <linearGradient id="_Linear22" x1="0" y1="0" x2="1" y2="0" gradientUnits="userSpaceOnUse" gradientTransform="matrix(57.8913,0,-0,59.5623,177.613,28.9457)"><stop offset="0" style="stop-color:rgb(165,180,252);stop-opacity:1"/><stop offset="1" style="stop-color:rgb(128,128,0);stop-opacity:1"/></linearGradient>
        <linearGradient id="_Linear23" x1="0" y1="0" x2="1" y2="0" gradientUnits="userSpaceOnUse" gradientTransform="matrix(57.8913,0,-0,59.5623,177.613,28.9457)"><stop offset="0" style="stop-color:rgb(165,180,252);stop-opacity:1"/><stop offset="1" style="stop-color:rgb(128,128,0);stop-opacity:1"/></linearGradient>
        <linearGradient id="_Linear24" x1="0" y1="0" x2="1" y2="0" gradientUnits="userSpaceOnUse" gradientTransform="matrix(57.8913,0,-0,59.5623,177.613,28.9457)"><stop offset="0" style="stop-color:rgb(165,180,252);stop-opacity:1"/><stop offset="1" style="stop-color:rgb(128,128,0);stop-opacity:1"/></linearGradient>
        <linearGradient id="_Linear25" x1="0" y1="0" x2="1" y2="0" gradientUnits="userSpaceOnUse" gradientTransform="matrix(57.8913,0,-0,59.5623,177.613,28.9457)"><stop offset="0" style="stop-color:rgb(165,180,252);stop-opacity:1"/><stop offset="1" style="stop-color:rgb(128,128,0);stop-opacity:1"/></linearGradient>
        <linearGradient id="_Linear26" x1="0" y1="0" x2="1" y2="0" gradientUnits="userSpaceOnUse" gradientTransform="matrix(57.8913,0,-0,59.5623,177.613,28.9457)"><stop offset="0" style="stop-color:rgb(165,180,252);stop-opacity:1"/><stop offset="1" style="stop-color:rgb(128,128,0);stop-opacity:1"/></linearGradient>
        <linearGradient id="_Linear27" x1="0" y1="0" x2="1" y2="0" gradientUnits="userSpaceOnUse" gradientTransform="matrix(57.8913,0,-0,59.5623,177.613,28.9457)"><stop offset="0" style="stop-color:rgb(165,180,252);stop-opacity:1"/><stop offset="1" style="stop-color:rgb(128,128,0);stop-opacity:1"/></linearGradient>
        <linearGradient id="_Linear28" x1="0" y1="0" x2="1" y2="0" gradientUnits="userSpaceOnUse" gradientTransform="matrix(57.8913,0,-0,59.5623,177.613,28.9457)"><stop offset="0" style="stop-color:rgb(165,180,252);stop-opacity:1"/><stop offset="1" style="stop-color:rgb(128,128,0);stop-opacity:1"/></linearGradient>
        <linearGradient id="_Linear29" x1="0" y1="0" x2="1" y2="0" gradientUnits="userSpaceOnUse" gradientTransform="matrix(57.8913,0,-0,59.5623,177.613,28.9457)"><stop offset="0" style="stop-color:rgb(165,180,252);stop-opacity:1"/><stop offset="1" style="stop-color:rgb(128,128,0);stop-opacity:1"/></linearGradient>
        <linearGradient id="_Linear30" x1="0" y1="0" x2="1" y2="0" gradientUnits="userSpaceOnUse" gradientTransform="matrix(57.8913,0,-0,59.5623,177.613,28.9457)"><stop offset="0" style="stop-color:rgb(165,180,252);stop-opacity:1"/><stop offset="1" style="stop-color:rgb(128,128,0);stop-opacity:1"/></linearGradient>
        <linearGradient id="_Linear31" x1="0" y1="0" x2="1" y2="0" gradientUnits="userSpaceOnUse" gradientTransform="matrix(57.8913,0,-0,59.5623,177.613,28.9457)"><stop offset="0" style="stop-color:rgb(165,180,252);stop-opacity:1"/><stop offset="1" style="stop-color:rgb(128,128,0);stop-opacity:1"/></linearGradient>
        <linearGradient id="_Linear32" x1="0" y1="0" x2="1" y2="0" gradientUnits="userSpaceOnUse" gradientTransform="matrix(57.8913,0,-0,59.5623,177.613,28.9457)"><stop offset="0" style="stop-color:rgb(165,180,252);stop-opacity:1"/><stop offset="1" style="stop-color:rgb(128,128,0);stop-opacity:1"/></linearGradient>
        <linearGradient id="_Linear33" x1="0" y1="0" x2="1" y2="0" gradientUnits="userSpaceOnUse" gradientTransform="matrix(57.8913,0,-0,59.5623,177.613,28.9457)"><stop offset="0" style="stop-color:rgb(165,180,252);stop-opacity:1"/><stop offset="1" style="stop-color:rgb(128,128,0);stop-opacity:1"/></linearGradient>
        <linearGradient id="_Linear34" x1="0" y1="0" x2="1" y2="0" gradientUnits="userSpaceOnUse" gradientTransform="matrix(57.8913,0,-0,59.5623,177.613,28.9457)"><stop offset="0" style="stop-color:rgb(165,180,252);stop-opacity:1"/><stop offset="1" style="stop-color:rgb(128,128,0);stop-opacity:1"/></linearGradient>
        <linearGradient id="_Linear35" x1="0" y1="0" x2="1" y2="0" gradientUnits="userSpaceOnUse" gradientTransform="matrix(57.8913,0,-0,59.5623,177.613,28.9457)"><stop offset="0" style="stop-color:rgb(165,180,252);stop-opacity:1"/><stop offset="1" style="stop-color:rgb(128,128,0);stop-opacity:1"/></linearGradient>
        <linearGradient id="_Linear36" x1="0" y1="0" x2="1" y2="0" gradientUnits="userSpaceOnUse" gradientTransform="matrix(57.8913,0,-0,59.5623,177.613,28.9457)"><stop offset="0" style="stop-color:rgb(165,180,252);stop-opacity:1"/><stop offset="1" style="stop-color:rgb(128,128,0);stop-opacity:1"/></linearGradient>
        <linearGradient id="_Linear37" x1="0" y1="0" x2="1" y2="0" gradientUnits="userSpaceOnUse" gradientTransform="matrix(57.8913,0,-0,59.5623,177.613,28.9457)"><stop offset="0" style="stop-color:rgb(165,180,252);stop-opacity:1"/><stop offset="1" style="stop-color:rgb(128,128,0);stop-opacity:1"/></linearGradient>
        <linearGradient id="_Linear38" x1="0" y1="0" x2="1" y2="0" gradientUnits="userSpaceOnUse" gradientTransform="matrix(57.8913,0,-0,59.5623,177.613,28.9457)"><stop offset="0" style="stop-color:rgb(165,180,252);stop-opacity:1"/><stop offset="1" style="stop-color:rgb(128,128,0);stop-opacity:1"/></linearGradient>
        <linearGradient id="_Linear39" x1="0" y1="0" x2="1" y2="0" gradientUnits="userSpaceOnUse" gradientTransform="matrix(57.8913,0,-0,59.5623,177.613,28.9457)"><stop offset="0" style="stop-color:rgb(165,180,252);stop-opacity:1"/><stop offset="1" style="stop-color:rgb(128,128,0);stop-opacity:1"/></linearGradient>
        <linearGradient id="_Linear40" x1="0" y1="0" x2="1" y2="0" gradientUnits="userSpaceOnUse" gradientTransform="matrix(102.323,-2.20387e-14,3.11624e-14,97.574,270.43,271.753)"><stop offset="0" style="stop-color:rgb(165,180,252);stop-opacity:1"/><stop offset="1" style="stop-color:rgb(128,128,0);stop-opacity:1"/></linearGradient>
        <linearGradient id="_Linear41" x1="0" y1="0" x2="1" y2="0" gradientUnits="userSpaceOnUse" gradientTransform="matrix(102.323,-1.78101e-14,3.11624e-14,78.8521,258.93,272.087)"><stop offset="0" style="stop-color:rgb(165,180,252);stop-opacity:1"/><stop offset="1" style="stop-color:rgb(128,128,0);stop-opacity:1"/></linearGradient>
        <linearGradient id="_Linear42" x1="0" y1="0" x2="1" y2="0" gradientUnits="userSpaceOnUse" gradientTransform="matrix(-102.323,-1.78101e-14,-3.11624e-14,78.8521,359.944,272.087)"><stop offset="0" style="stop-color:rgb(165,180,252);stop-opacity:1"/><stop offset="1" style="stop-color:rgb(128,128,0);stop-opacity:1"/></linearGradient>
        <linearGradient id="_Linear43" x1="0" y1="0" x2="1" y2="0" gradientUnits="userSpaceOnUse" gradientTransform="matrix(-102.323,-2.20387e-14,-3.11624e-14,97.574,371.444,271.753)"><stop offset="0" style="stop-color:rgb(165,180,252);stop-opacity:1"/><stop offset="1" style="stop-color:rgb(128,128,0);stop-opacity:1"/></linearGradient>
        <linearGradient id="_Linear44" x1="0" y1="0" x2="1" y2="0" gradientUnits="userSpaceOnUse" gradientTransform="matrix(230.614,-2.20387e-14,7.02337e-14,97.574,85.3122,271.753)"><stop offset="0" style="stop-color:rgb(165,180,252);stop-opacity:1"/><stop offset="1" style="stop-color:rgb(128,128,0);stop-opacity:1"/></linearGradient>
        <linearGradient id="_Linear45" x1="0" y1="0" x2="1" y2="0" gradientUnits="userSpaceOnUse" gradientTransform="matrix(56.5548,-2.20387e-14,1.72238e-14,97.574,275.743,270.013)"><stop offset="0" style="stop-color:rgb(165,180,252);stop-opacity:1"/><stop offset="1" style="stop-color:rgb(128,128,0);stop-opacity:1"/></linearGradient>
        <linearGradient id="_Linear46" x1="0" y1="0" x2="1" y2="0" gradientUnits="userSpaceOnUse" gradientTransform="matrix(230.614,-2.20387e-14,7.02337e-14,97.574,291.472,271.753)"><stop offset="0" style="stop-color:rgb(165,180,252);stop-opacity:1"/><stop offset="1" style="stop-color:rgb(128,128,0);stop-opacity:1"/></linearGradient>
    </defs>
</svg>
