<?xml version="1.0" encoding="UTF-8" standalone="no"?>
<!DOCTYPE svg PUBLIC "-//W3C//DTD SVG 1.1//EN" "http://www.w3.org/Graphics/SVG/1.1/DTD/svg11.dtd">
<svg width="100%" height="100%" viewBox="0 0 399 399" version="1.1" xmlns="http://www.w3.org/2000/svg" xmlns:xlink="http://www.w3.org/1999/xlink" xml:space="preserve" xmlns:serif="http://www.serif.com/" style="fill-rule:evenodd;clip-rule:evenodd;stroke-linecap:round;stroke-linejoin:round;stroke-miterlimit:1.5;">
    <g transform="matrix(1,0,0,1,-0.416337,-0.984954)">
        <g id="zelda-sword" serif:id="zelda sword">
            <path id="a" d="M212.138,282.382L211.386,383.944L199.977,398.58L188.272,383.944L187.286,282.612M186.425,120.638L186.091,114.438L188.262,109.789L188.262,95.993L189.467,95.1C186.298,92.982 183.776,90.971 183.776,90.971L183.776,86.551C178.848,86.371 173.302,86.306 170.434,86.736C164.554,87.619 159.888,94.36 159.888,94.36L135.943,94.36C135.943,94.36 138.585,87.406 145.507,81.975C152.43,76.544 165.548,73.221 165.548,73.221C165.548,73.221 169.039,77.612 172.99,78.913C180.908,81.519 188.27,82.58 191.622,82.959L193.648,20.273L193.439,20.273L192.193,12.994L189.092,10.836L195.551,1.985L204.087,1.985L210.546,10.836L207.445,12.994L206.199,20.273L205.991,20.273L208.018,82.999C211.179,82.657 218.796,81.617 227.01,78.913C230.961,77.612 234.452,73.221 234.452,73.221C234.452,73.221 247.57,76.544 254.493,81.975C261.415,87.406 264.057,94.36 264.057,94.36L240.112,94.36C240.112,94.36 235.446,87.619 229.566,86.736C226.628,86.295 220.878,86.374 215.862,86.564L215.862,90.971C215.862,90.971 213.342,92.986 210.178,95.104L211.376,95.993L211.376,109.789L213.568,114.438L213.514,120.638" style="fill:none;stroke:url(#_Linear1);stroke-width:2px;"/>
        </g>
        <g id="zelda-wings" serif:id="zelda wings">
            <g transform="matrix(1.01117,0,0,1.00855,-1.91773,-2.68867)">
                <path d="M85.851,206.786L3.297,156.471L12.104,200.672L82.204,214.249C79.356,221.111 77.688,228.44 77.688,236.082C77.688,237.234 77.726,238.38 77.801,239.524L17.423,222.652L29.372,251.353L78.958,247.722C80.951,256.92 85.156,265.606 90.621,273.417L40.275,278.612L65.387,296.249L95.751,280.081C102.409,287.98 110.223,294.719 117.968,299.829L92.293,308.638L117.75,314.558L125.557,304.334C133.042,308.277 140.064,310.477 145.435,310.477C150.347,304.027 171.755,284.022 171.755,284.022C171.755,284.022 93.321,285.252 93.321,231.986C93.321,192.488 129.949,171.424 145.435,164.026C129.802,164.026 100.173,181.376 85.851,206.786Z" style="fill:none;stroke:url(#_Linear2);stroke-width:1.98px;"/>
            </g>
            <g transform="matrix(-1.01117,0,0,1.00855,401.746,-2.68867)">
                <path d="M85.851,206.786L3.297,156.471L12.104,200.672L82.204,214.249C79.356,221.111 77.688,228.44 77.688,236.082C77.688,237.234 77.726,238.38 77.801,239.524L17.423,222.652L29.372,251.353L78.958,247.722C80.951,256.92 85.156,265.606 90.621,273.417L40.275,278.612L65.387,296.249L95.751,280.081C102.409,287.98 110.223,294.719 117.968,299.829L92.293,308.638L117.75,314.558L125.557,304.334C133.042,308.277 140.064,310.477 145.435,310.477C150.347,304.027 171.755,284.022 171.755,284.022C171.755,284.022 93.321,285.252 93.321,231.986C93.321,192.488 129.949,171.424 145.435,164.026C129.802,164.026 100.173,181.376 85.851,206.786Z" style="fill:none;stroke:url(#_Linear3);stroke-width:1.98px;"/>
            </g>
        </g>
        <g id="lock" transform="matrix(1.89573,7.04139e-17,-7.04139e-17,1.89573,-199.836,-78.337)">
            <g transform="matrix(1.33823,0,0,1.33823,-70.9216,-55.8201)">
                <path d="M233.174,152.696C233.174,147.491 228.948,143.265 223.743,143.265L197.463,143.265C192.258,143.265 188.032,147.491 188.032,152.696L188.032,171.558C188.032,176.763 192.258,180.989 197.463,180.989L223.743,180.989C228.948,180.989 233.174,176.763 233.174,171.558L233.174,152.696ZM229.743,154.129C229.743,149.715 226.159,146.132 221.745,146.132L199.46,146.132C195.046,146.132 191.463,149.715 191.463,154.129L191.463,170.124C191.463,174.538 195.046,178.122 199.46,178.122L221.745,178.122C226.159,178.122 229.743,174.538 229.743,170.124L229.743,154.129Z" style="fill:url(#_Linear4);"/>
            </g>
            <g transform="matrix(2.08992,0,0,2.08992,-229.229,-177.689)">
                <path d="M209.744,162.652C208.446,162.279 207.495,161.082 207.495,159.665C207.495,157.949 208.888,156.557 210.603,156.557C212.318,156.557 213.711,157.949 213.711,159.665C213.711,161.082 212.76,162.279 211.462,162.652L211.462,167.697L209.744,167.697L209.744,162.652Z" style="fill:url(#_Linear5);"/>
            </g>
            <g transform="matrix(1.50298,0,0,1,-104.622,0.254944)">
                <path d="M197.518,115.522C197.56,110.816 203.017,107.005 209.733,107.005C216.475,107.005 221.949,110.846 221.949,115.577L221.949,138.026L197.518,138.026C197.518,138.026 197.518,121.13 197.518,115.577C197.518,115.559 197.518,115.522 197.518,115.522ZM202.679,121.3C202.706,117.896 205.595,115.139 209.908,115.139C214.238,115.139 217.228,117.918 217.228,121.34L217.228,136.513L202.679,136.513L202.679,121.34L202.679,121.3Z" style="fill:url(#_Linear6);"/>
            </g>
        </g>
    </g>
    <defs>
        <linearGradient id="_Linear1" x1="0" y1="0" x2="1" y2="0" gradientUnits="userSpaceOnUse" gradientTransform="matrix(260.759,0,0,396.595,3.29726,200.283)"><stop offset="0" style="stop-color:rgb(165,180,252);stop-opacity:1"/><stop offset="0.63" style="stop-color:rgb(159,172,213);stop-opacity:1"/><stop offset="0.83" style="stop-color:rgb(144,151,113);stop-opacity:1"/><stop offset="1" style="stop-color:rgb(128,128,0);stop-opacity:1"/></linearGradient>
        <linearGradient id="_Linear2" x1="0" y1="0" x2="1" y2="0" gradientUnits="userSpaceOnUse" gradientTransform="matrix(260.759,0,0,396.595,3.29726,200.283)"><stop offset="0" style="stop-color:rgb(165,180,252);stop-opacity:0.25"/><stop offset="0.5" style="stop-color:rgb(165,180,252);stop-opacity:0.82"/><stop offset="1" style="stop-color:rgb(165,180,252);stop-opacity:1"/></linearGradient>
        <linearGradient id="_Linear3" x1="0" y1="0" x2="1" y2="0" gradientUnits="userSpaceOnUse" gradientTransform="matrix(260.759,0,0,396.595,3.29726,200.283)"><stop offset="0" style="stop-color:rgb(165,180,252);stop-opacity:0.25"/><stop offset="0.15" style="stop-color:rgb(147,155,131);stop-opacity:0.61"/><stop offset="0.33" style="stop-color:rgb(133,135,34);stop-opacity:0.9"/><stop offset="1" style="stop-color:rgb(128,128,0);stop-opacity:1"/></linearGradient>
        <linearGradient id="_Linear4" x1="0" y1="0" x2="1" y2="0" gradientUnits="userSpaceOnUse" gradientTransform="matrix(43.8409,-0.0770513,0.0770513,43.8409,189.896,154.217)"><stop offset="0" style="stop-color:rgb(165,180,252);stop-opacity:1"/><stop offset="1" style="stop-color:rgb(128,128,0);stop-opacity:1"/></linearGradient>
        <linearGradient id="_Linear5" x1="0" y1="0" x2="1" y2="0" gradientUnits="userSpaceOnUse" gradientTransform="matrix(28.0725,-0.049338,0.049338,28.0725,197.344,157.062)"><stop offset="0" style="stop-color:rgb(165,180,252);stop-opacity:1"/><stop offset="1" style="stop-color:rgb(128,128,0);stop-opacity:1"/></linearGradient>
        <linearGradient id="_Linear6" x1="0" y1="0" x2="1" y2="0" gradientUnits="userSpaceOnUse" gradientTransform="matrix(39.0352,-0.103112,0.0686051,58.6693,191.503,150.303)"><stop offset="0" style="stop-color:rgb(165,180,252);stop-opacity:1"/><stop offset="1" style="stop-color:rgb(128,128,0);stop-opacity:1"/></linearGradient>
    </defs>
</svg>
